<svg xmlns="http://www.w3.org/2000/svg" width="18.782" height="21.465" viewBox="0 0 18.782 21.465"><defs><style>.a{fill:#777;}</style></defs><path class="a" d="M0,19.452a2.013,2.013,0,0,0,2.012,2.012H16.769a2.013,2.013,0,0,0,2.012-2.012V8.049H0Zm13.415-8.217a.5.5,0,0,1,.5-.5H15.6a.5.5,0,0,1,.5.5v1.677a.5.5,0,0,1-.5.5H13.918a.5.5,0,0,1-.5-.5Zm0,5.366a.5.5,0,0,1,.5-.5H15.6a.5.5,0,0,1,.5.5v1.677a.5.5,0,0,1-.5.5H13.918a.5.5,0,0,1-.5-.5ZM8.049,11.235a.5.5,0,0,1,.5-.5h1.677a.5.5,0,0,1,.5.5v1.677a.5.5,0,0,1-.5.5H8.552a.5.5,0,0,1-.5-.5Zm0,5.366a.5.5,0,0,1,.5-.5h1.677a.5.5,0,0,1,.5.5v1.677a.5.5,0,0,1-.5.5H8.552a.5.5,0,0,1-.5-.5ZM2.683,11.235a.5.5,0,0,1,.5-.5H4.863a.5.5,0,0,1,.5.5v1.677a.5.5,0,0,1-.5.5H3.186a.5.5,0,0,1-.5-.5Zm0,5.366a.5.5,0,0,1,.5-.5H4.863a.5.5,0,0,1,.5.5v1.677a.5.5,0,0,1-.5.5H3.186a.5.5,0,0,1-.5-.5ZM16.769,2.683H14.757V.671A.673.673,0,0,0,14.086,0H12.745a.673.673,0,0,0-.671.671V2.683H6.708V.671A.673.673,0,0,0,6.037,0H4.7a.673.673,0,0,0-.671.671V2.683H2.012A2.013,2.013,0,0,0,0,4.7V6.708H18.782V4.7A2.013,2.013,0,0,0,16.769,2.683Z"/></svg>