<svg xmlns="http://www.w3.org/2000/svg" xmlns:xlink="http://www.w3.org/1999/xlink" width="133.551" height="134.965" viewBox="0 0 133.551 134.965"><defs><style>.a,.b,.o{fill:none;}.a{stroke:#8d4dc9;}.a,.b{stroke-width:2px;}.b{stroke:#f88a12;opacity:0.5;}.c{clip-path:url(#a);}.d{fill:#e8a78c;}.e{fill:#c7c9cb;}.e,.h,.i{mix-blend-mode:multiply;isolation:isolate;}.f{fill:#fff;}.g,.h{fill:#1eff8e;}.i{fill:#aeb0b3;}.j{fill:#051df6;}.k{fill:#095380;}.l{fill:#711c00;}.m{fill:#822105;}.n{stroke:none;}</style><clipPath id="a"><path class="a" d="M173.414,367.831a66.775,66.775,0,1,1-66.775-66.777A66.775,66.775,0,0,1,173.414,367.831Z" transform="translate(-39.863 -301.054)"/></clipPath></defs><g transform="translate(-113 -92.698)"><g class="b" transform="translate(113 94.112)"><circle class="n" cx="66.775" cy="66.775" r="66.775"/><circle class="o" cx="66.775" cy="66.775" r="65.775"/></g><g class="c" transform="translate(113 92.698)"><g transform="translate(9.954 13.13)"><g transform="translate(46.009 73.517)"><rect class="d" width="21.543" height="11.334" transform="translate(0.001)"/><path class="e" d="M89.748,377.649a20.527,20.527,0,0,0,9.5-2.667,17.214,17.214,0,0,0,5.215-4.479c.258-.342.541-.727.8-1.142v-.4H83.722v8.479A48.836,48.836,0,0,0,89.748,377.649Z" transform="translate(-83.722 -368.96)"/></g><path class="d" d="M97.414,320.183H97.4c-13.765.389-24.272,6.044-24.222,25.548.031,11.563,1.083,14.974,4.454,28.169,2.33,9.13,14.734,13.945,19.463,14.259.1-.008.205-.018.314-.028.107.01.213.02.314.028,4.727-.314,17.131-5.129,19.463-14.259,3.367-13.195,4.423-16.606,4.452-28.169C121.685,326.227,111.179,320.572,97.414,320.183Z" transform="translate(-40.623 -308.905)"/><path class="d" d="M109.415,345.646l-1.506,11.516c5.91,2.6,6.834-10.949,6.834-10.949C113.377,342.834,109.415,345.646,109.415,345.646Z" transform="translate(-31.037 -302.18)"/><path class="d" d="M70.5,347.295s.923,13.554,6.832,10.95l-1.5-11.516S71.861,343.916,70.5,347.295Z" transform="translate(-41.362 -301.881)"/><path class="d" d="M115.406,378.926l29.1,7.572s9.93,1.522,12.464,10.444l4.341,16.173H47.664L52,396.942C54.539,388.02,64.469,386.5,64.469,386.5l29.012-7.572Z" transform="translate(-47.664 -292.692)"/><path class="f" d="M47.664,413.115,52,396.942C54.539,388.02,64.469,386.5,64.469,386.5l29.012-7.572h21.925l29.1,7.572s9.93,1.522,12.464,10.444l4.341,16.173" transform="translate(-47.664 -292.692)"/><g transform="translate(49.62 84.851)"><path class="g" d="M95.624,377.843H91.882l-5.33,8.4,4.766,5.364h4.868l4.766-5.364Z" transform="translate(-86.552 -377.843)"/><path class="h" d="M96.4,390.582a15.029,15.029,0,0,1-3.629-12.739h-.891l-5.33,8.4,4.767,5.364h4.868l.586-.658C96.644,390.829,96.52,390.706,96.4,390.582Z" transform="translate(-86.552 -377.843)"/></g><g transform="translate(56.739 79.546)"><path class="i" d="M102.983,373.685l-10.852,5.667,7.151,10.767,12.982-7.814Z" transform="translate(-92.131 -373.685)"/><path class="f" d="M102.983,373.685l-10.852,5.667,7.281,9.337,12.141-7.029Z" transform="translate(-92.131 -373.685)"/></g><g transform="translate(36.669 79.184)"><path class="i" d="M85.685,373.4l10.786,5.667-7.086,10.766L76.4,382.023Z" transform="translate(-76.402 -373.401)"/><path class="f" d="M85.531,373.4l10.852,5.667L89.1,388.408l-12.141-7.032Z" transform="translate(-76.248 -373.401)"/></g><path class="j" d="M85.184,380.813l-20.716,5.393S54.539,387.728,52,396.65l-4.341,16.173H161.307l-4.341-16.173c-2.534-8.922-12.464-10.444-12.464-10.444l-21.694-6.224-18.4,32.036Z" transform="translate(-47.664 -292.401)"/><path class="g" d="M90.784,388.629l-2.594,11.456,5.029,8.164,4.694-8.169-2.259-11.451Z" transform="translate(-36.48 -290.015)"/><path class="k" d="M79.192,380.633l-9.814,2.554,5.536,2.148L71.5,389.221l19.8,23.423h7.691Z" transform="translate(-41.671 -292.221)"/><path class="k" d="M110.624,378.9l10.8,3.1-5.535,2.432,3.416,3.887-19.8,23.423H91.815Z" transform="translate(-35.479 -292.7)"/><path class="l" d="M74.918,356.247l2.149,12.946,1.788,1.161-1.788-18.174,3.067-7.252.743-5.968.091-.056c2.192-7.676,19.112-6.737,19.112-6.737,20.121.414,17.4,14.394,17.4,14.394l2.955,6.284-1.786,18.171,1.786-1.16,2.151-12.945c3.25-7.117,1.3-23.649,1.3-23.649s-2.45-6.735-7.665-7.508c0,0-2.44-11.28-18.451-9.242,0,0-14.893,3.445-19.762-5.17,0,0-.189,5.794,2.955,7.831,0,0-3.191-1.88-3.707-3.6,0,0,.23,3.614,2.2,4.871-.981-.58-4.606-2.907-5.907-6.28,0,0-1.039,5.483,3.191,8.46,0,0-5.81-3.29-5.567-7.05,0,0-1.811,7.676,3.416,9.556,0,0-1.922,1.41-6.465-3.916,0,0-1.309,9.1,5.17,10.027C73.3,331.239,70.75,336.408,74.918,356.247Zm4.8-35.662-.028-.015Z" transform="translate(-42.045 -311.344)"/><path class="m" d="M73.553,336.45c.436.152,1.6,1.078,2.331,1.4-.06-2.392-.754-4.809-.582-7.339a39.248,39.248,0,0,0,4.031,1.646,5.971,5.971,0,0,1-1.212-4.148c1.809-.235,3.269,1.3,4.969,1.21.156-1.265-.367-2.572-.273-3.878,2.664.419,5.433,1.569,8.114,2a20.647,20.647,0,0,1-1.521-3.27c3.366.664,6.747,1.724,10.14,2.333-.288-.912-1.312-1.716-1.233-2.783,3.579-.376,7.522,2.751,10.916,3.56a4.246,4.246,0,0,1-1.641-1.882,39.258,39.258,0,0,1,6.852,4.362,7.675,7.675,0,0,1-.871-.859c1,.771,2,1.567,2.927,2.424-1.048-2.6-4.4-3.427-5.132-6.172a6,6,0,0,0,1.623,1.652c-.907-2.092-3.452-3.9-5.151-5.316a6.364,6.364,0,0,0-2.484-1.629,33.375,33.375,0,0,0,2.613,3.791c-1.575-1.046-3.254-3.037-5.1-3.39.193,1.183,1.456,2.3,1.843,3.425-2.4-1.045-4.521-4.739-7.184-4.987.357.64.907,1.358,1.219,1.983-1.356-.868-3.913-2.249-5.586-1.984,0,1.175.909,2.455,1.531,3.412-1.933-.818-3.878-2.741-6.1-2.782.531.6,1.284,1.079,1.812,1.685-1.451,0-5.6-2.235-6.842-1.208-.851.7.208,1.646.318,2.63-.9-.435-3.95-2.478-5.017-1.567-.9.771,1.17,2.334,1.386,3.286-1.52-.3-2.852-1.353-4.48-1.215.2.741.909,1.3,1.337,1.988-1-.077-1.869-.808-2.9-.547a4.449,4.449,0,0,0,.077,1.65c-.445-.167-1-.428-1.494-.6a15.229,15.229,0,0,1,.9,2l-.272.052A4.347,4.347,0,0,1,74,329.5c-.245-.194-.655-.243-.892-.4-.179,1.208.175,2.5.11,3.733-.082.068-.3.023-.4.045.308.212.408.507.684.726a1.17,1.17,0,0,1-.236.061c.53,1.014.735,2.858-.038,3.795a3.535,3.535,0,0,1,.486-1.166" transform="translate(-40.731 -309.349)"/></g></g></g></svg>